<?xml version="1.0" encoding="UTF-8"?>
<!DOCTYPE svg PUBLIC "-//W3C//DTD SVG 1.1//EN" "http://www.w3.org/Graphics/SVG/1.1/DTD/svg11.dtd">
<svg version="1.1" xmlns="http://www.w3.org/2000/svg" xmlns:xlink="http://www.w3.org/1999/xlink" x="0" y="0" width="530" height="280" viewBox="0, 0, 530, 280">
  <g id="Layer_1">
    <g>
      <path d="M373.005,147.828 C373.005,147.828 371.607,147.828 371.607,147.828 C371.607,147.828 371.607,157.295 371.607,157.295 C371.607,157.295 365.555,147.828 365.555,147.828 C365.555,147.828 363.951,147.828 363.951,147.828 C363.951,147.828 363.951,159.407 363.951,159.407 C363.951,159.407 365.349,159.407 365.349,159.407 C365.349,159.407 365.349,150.02 365.349,150.02 C365.349,150.02 371.337,159.407 371.337,159.407 C371.337,159.407 373.005,159.407 373.005,159.407 C373.005,159.407 373.005,147.828 373.005,147.828 z" fill="#161413"/>
      <path d="M372.012,90.085 C372.012,90.085 370.614,90.085 370.614,90.085 C370.614,90.085 370.614,99.551 370.614,99.551 C370.614,99.551 364.563,90.085 364.563,90.085 C364.563,90.085 362.959,90.085 362.959,90.085 C362.959,90.085 362.959,101.664 362.959,101.664 C362.959,101.664 364.356,101.664 364.356,101.664 C364.356,101.664 364.356,92.277 364.356,92.277 C364.356,92.277 370.344,101.664 370.344,101.664 C370.344,101.664 372.012,101.664 372.012,101.664 C372.012,101.664 372.012,90.085 372.012,90.085 z" fill="#161413"/>
      <path d="M333.627,120.032 C333.627,120.032 332.229,120.032 332.229,120.032 C332.229,120.032 332.229,129.498 332.229,129.498 C332.229,129.498 326.178,120.032 326.178,120.032 C326.178,120.032 324.574,120.032 324.574,120.032 C324.574,120.032 324.574,131.611 324.574,131.611 C324.574,131.611 325.971,131.611 325.971,131.611 C325.971,131.611 325.971,122.224 325.971,122.224 C325.971,122.224 331.959,131.611 331.959,131.611 C331.959,131.611 333.627,131.611 333.627,131.611 C333.627,131.611 333.627,120.032 333.627,120.032 z" fill="#161413"/>
      <path d="M429.755,91.078 C429.755,91.078 428.357,91.078 428.357,91.078 C428.357,91.078 428.357,100.544 428.357,100.544 C428.357,100.544 422.305,91.078 422.305,91.078 C422.305,91.078 420.701,91.078 420.701,91.078 C420.701,91.078 420.701,102.657 420.701,102.657 C420.701,102.657 422.099,102.657 422.099,102.657 C422.099,102.657 422.099,93.27 422.099,93.27 C422.099,93.27 428.087,102.657 428.087,102.657 C428.087,102.657 429.755,102.657 429.755,102.657 C429.755,102.657 429.755,91.078 429.755,91.078 z" fill="#161413"/>
      <path d="M401.793,51.7 C401.793,51.7 400.396,51.7 400.396,51.7 C400.396,51.7 400.396,61.166 400.396,61.166 C400.396,61.166 394.344,51.7 394.344,51.7 C394.344,51.7 392.74,51.7 392.74,51.7 C392.74,51.7 392.74,63.279 392.74,63.279 C392.74,63.279 394.138,63.279 394.138,63.279 C394.138,63.279 394.138,53.892 394.138,53.892 C394.138,53.892 400.126,63.279 400.126,63.279 C400.126,63.279 401.793,63.279 401.793,63.279 C401.793,63.279 401.793,51.7 401.793,51.7 z" fill="#161413"/>
      <path d="M428.762,147.828 C428.762,147.828 427.365,147.828 427.365,147.828 C427.365,147.828 427.365,157.295 427.365,157.295 C427.365,157.295 421.313,147.828 421.313,147.828 C421.313,147.828 419.709,147.828 419.709,147.828 C419.709,147.828 419.709,159.407 419.709,159.407 C419.709,159.407 421.107,159.407 421.107,159.407 C421.107,159.407 421.107,150.02 421.107,150.02 C421.107,150.02 427.095,159.407 427.095,159.407 C427.095,159.407 428.762,159.407 428.762,159.407 C428.762,159.407 428.762,147.828 428.762,147.828 z" fill="#161413"/>
      <path d="M400.967,186.378 C400.967,186.378 399.569,186.378 399.569,186.378 C399.569,186.378 399.569,195.845 399.569,195.845 C399.569,195.845 393.517,186.378 393.517,186.378 C393.517,186.378 391.913,186.378 391.913,186.378 C391.913,186.378 391.913,197.957 391.913,197.957 C391.913,197.957 393.311,197.957 393.311,197.957 C393.311,197.957 393.311,188.57 393.311,188.57 C393.311,188.57 399.299,197.957 399.299,197.957 C399.299,197.957 400.967,197.957 400.967,197.957 C400.967,197.957 400.967,186.378 400.967,186.378 z" fill="#161413"/>
      <path d="M468.306,119.039 C468.306,119.039 466.908,119.039 466.908,119.039 C466.908,119.039 466.908,128.506 466.908,128.506 C466.908,128.506 460.856,119.039 460.856,119.039 C460.856,119.039 459.252,119.039 459.252,119.039 C459.252,119.039 459.252,130.618 459.252,130.618 C459.252,130.618 460.65,130.618 460.65,130.618 C460.65,130.618 460.65,121.231 460.65,121.231 C460.65,121.231 466.638,130.618 466.638,130.618 C466.638,130.618 468.306,130.618 468.306,130.618 C468.306,130.618 468.306,119.039 468.306,119.039 z" fill="#161413"/>
      <path d="M347.39,191.009 C347.39,191.009 347.29,191.704 347.29,191.704 C347.29,191.704 346.662,191.869 346.662,191.869 C346.662,191.869 328.826,174.066 328.826,174.066 C328.826,174.066 328.992,173.437 328.992,173.437 C328.992,173.437 329.686,173.305 329.686,173.305 C329.686,173.305 347.39,191.009 347.39,191.009 z" fill="#161413"/>
      <path d="M348.383,186.442 C348.383,186.442 347.588,187.236 347.588,187.236 C347.588,187.236 333.392,173.04 333.392,173.04 C333.392,173.04 334.187,172.245 334.187,172.245 C334.187,172.245 348.383,186.442 348.383,186.442 z" fill="#161413"/>
      <path d="M371.645,177.938 C371.645,177.938 372.307,178.235 372.307,178.235 C372.307,178.235 372.307,178.864 372.307,178.864 C372.307,178.864 347.754,192.1 347.754,192.1 C347.754,192.1 347.29,191.703 347.29,191.703 C347.29,191.703 347.39,191.009 347.39,191.009 C347.39,191.009 371.645,177.938 371.645,177.938 z" fill="#161413"/>
      <path d="M367.906,160.929 C367.906,160.929 368.997,160.697 368.997,160.697 C368.997,160.697 372.803,177.871 372.803,177.871 C372.803,177.871 372.307,178.235 372.307,178.235 C372.307,178.235 371.645,177.938 371.645,177.938 C371.645,177.938 367.906,160.929 367.906,160.929 z" fill="#161413"/>
      <path d="M364.034,161.789 C364.034,161.789 365.159,161.524 365.159,161.524 C365.159,161.524 368.302,175.853 368.302,175.853 C368.302,175.853 367.211,176.084 367.211,176.084 C367.211,176.084 364.034,161.789 364.034,161.789 z" fill="#161413"/>
      <path d="M341.83,149.05 C341.83,149.05 341.5,148.42 341.5,148.42 C341.5,148.42 341.863,147.892 341.863,147.892 C341.863,147.892 362.181,151.532 362.181,151.532 C362.181,151.532 361.983,152.624 361.983,152.624 C361.983,152.624 341.83,149.05 341.83,149.05 z" fill="#161413"/>
      <path d="M340.871,148.421 C340.871,148.421 341.499,148.421 341.499,148.421 C341.499,148.421 341.83,149.05 341.83,149.05 C341.83,149.05 329.686,173.305 329.686,173.305 C329.686,173.305 328.992,173.437 328.992,173.437 C328.992,173.437 328.594,172.941 328.594,172.941 C328.594,172.941 340.871,148.421 340.871,148.421 z" fill="#161413"/>
      <path d="M332.863,133.629 C332.863,133.629 333.856,133.066 333.856,133.066 C333.856,133.066 341.863,147.891 341.863,147.891 C341.863,147.891 341.499,148.42 341.499,148.42 C341.499,148.42 340.871,148.42 340.871,148.42 C340.871,148.42 332.863,133.629 332.863,133.629 z" fill="#161413"/>
      <path d="M336.305,131.742 C336.305,131.742 337.297,131.213 337.297,131.213 C337.297,131.213 344.544,144.582 344.544,144.582 C344.544,144.582 343.585,145.144 343.585,145.144 C343.585,145.144 336.305,131.742 336.305,131.742 z" fill="#161413"/>
      <path d="M389.812,187.402 C389.812,187.402 389.25,188.394 389.25,188.394 C389.25,188.394 372.307,178.864 372.307,178.864 C372.307,178.864 372.307,178.235 372.307,178.235 C372.307,178.235 372.803,177.871 372.803,177.871 C372.803,177.871 389.812,187.402 389.812,187.402 z" fill="#161413"/>
      <path d="M330.646,77.309 C330.646,77.309 329.951,77.21 329.951,77.21 C329.951,77.21 329.785,76.581 329.785,76.581 C329.785,76.581 348.581,57.785 348.581,57.785 C348.581,57.785 349.21,57.951 349.21,57.951 C349.21,57.951 349.309,58.646 349.309,58.646 C349.309,58.646 330.646,77.309 330.646,77.309 z" fill="#161413"/>
      <path d="M341.83,99.678 C341.83,99.678 341.5,100.307 341.5,100.307 C341.5,100.307 340.871,100.307 340.871,100.307 C340.871,100.307 329.554,77.673 329.554,77.673 C329.554,77.673 329.951,77.21 329.951,77.21 C329.951,77.21 330.646,77.309 330.646,77.309 C330.646,77.309 341.83,99.678 341.83,99.678 z" fill="#161413"/>
      <path d="M344.213,95.641 C344.213,95.641 343.187,96.137 343.187,96.137 C343.187,96.137 334.253,78.236 334.253,78.236 C334.253,78.236 335.245,77.739 335.245,77.739 C335.245,77.739 344.213,95.641 344.213,95.641 z" fill="#161413"/>
      <path d="M361.023,96.105 C361.023,96.105 361.221,97.23 361.221,97.23 C361.221,97.23 341.897,100.803 341.897,100.803 C341.897,100.803 341.5,100.307 341.5,100.307 C341.5,100.307 341.83,99.679 341.83,99.679 C341.83,99.679 361.023,96.105 361.023,96.105 z" fill="#161413"/>
      <path d="M372.605,69.83 C372.605,69.83 373.266,69.5 373.266,69.5 C373.266,69.5 373.763,69.897 373.763,69.897 C373.763,69.897 369.594,88.56 369.594,88.56 C369.594,88.56 368.501,88.328 368.501,88.328 C368.501,88.328 372.605,69.83 372.605,69.83 z" fill="#161413"/>
      <path d="M373.234,68.871 C373.234,68.871 373.266,69.5 373.266,69.5 C373.266,69.5 372.604,69.83 372.604,69.83 C372.604,69.83 349.309,58.646 349.309,58.646 C349.309,58.646 349.21,57.951 349.21,57.951 C349.21,57.951 349.673,57.554 349.673,57.554 C349.673,57.554 373.234,68.871 373.234,68.871 z" fill="#161413"/>
      <path d="M368.964,71.187 C368.964,71.187 368.501,72.213 368.501,72.213 C368.501,72.213 349.772,63.212 349.772,63.212 C349.772,63.212 350.269,62.22 350.269,62.22 C350.269,62.22 368.964,71.187 368.964,71.187 z" fill="#161413"/>
      <path d="M390.242,60.036 C390.242,60.036 390.772,61.028 390.772,61.028 C390.772,61.028 373.763,69.897 373.763,69.897 C373.763,69.897 373.266,69.5 373.266,69.5 C373.266,69.5 373.234,68.871 373.234,68.871 C373.234,68.871 390.242,60.036 390.242,60.036 z" fill="#161413"/>
      <path d="M333.128,118.341 C333.128,118.341 332.102,117.812 332.102,117.812 C332.102,117.812 340.871,100.307 340.871,100.307 C340.871,100.307 341.5,100.307 341.5,100.307 C341.5,100.307 341.897,100.803 341.897,100.803 C341.897,100.803 333.128,118.341 333.128,118.341 z" fill="#161413"/>
      <path d="M445.305,57.686 C445.305,57.686 445.437,56.992 445.437,56.992 C445.437,56.992 446.066,56.826 446.066,56.826 C446.066,56.826 463.869,74.662 463.869,74.662 C463.869,74.662 463.704,75.29 463.704,75.29 C463.704,75.29 463.009,75.39 463.009,75.39 C463.009,75.39 445.305,57.686 445.305,57.686 z" fill="#161413"/>
      <path d="M444.245,62.187 C444.245,62.187 445.04,61.392 445.04,61.392 C445.04,61.392 459.236,75.588 459.236,75.588 C459.236,75.588 458.442,76.383 458.442,76.383 C458.442,76.383 444.245,62.187 444.245,62.187 z" fill="#161413"/>
      <path d="M421.05,69.83 C421.05,69.83 420.421,69.499 420.421,69.499 C420.421,69.499 420.421,68.871 420.421,68.871 C420.421,68.871 444.941,56.594 444.941,56.594 C444.941,56.594 445.437,56.992 445.437,56.992 C445.437,56.992 445.305,57.686 445.305,57.686 C445.305,57.686 421.05,69.83 421.05,69.83 z" fill="#161413"/>
      <path d="M424.524,89.387 C424.524,89.387 423.432,89.586 423.432,89.586 C423.432,89.586 419.892,69.863 419.892,69.863 C419.892,69.863 420.42,69.5 420.42,69.5 C420.42,69.5 421.05,69.83 421.05,69.83 C421.05,69.83 424.524,89.387 424.524,89.387 z" fill="#161413"/>
      <path d="M449.938,99.678 C449.938,99.678 450.235,100.307 450.235,100.307 C450.235,100.307 449.871,100.803 449.871,100.803 C449.871,100.803 430.944,96.997 430.944,96.997 C430.944,96.997 431.175,95.906 431.175,95.906 C431.175,95.906 449.938,99.678 449.938,99.678 z" fill="#161413"/>
      <path d="M448.118,95.277 C448.118,95.277 447.918,96.369 447.918,96.369 C447.918,96.369 431.704,93.126 431.704,93.126 C431.704,93.126 431.936,92.034 431.936,92.034 C431.936,92.034 448.118,95.277 448.118,95.277 z" fill="#161413"/>
      <path d="M450.864,100.307 C450.864,100.307 450.235,100.307 450.235,100.307 C450.235,100.307 449.938,99.678 449.938,99.678 C449.938,99.678 463.009,75.39 463.009,75.39 C463.009,75.39 463.703,75.29 463.703,75.29 C463.703,75.29 464.1,75.754 464.1,75.754 C464.1,75.754 450.864,100.307 450.864,100.307 z" fill="#161413"/>
      <path d="M460.196,116.952 C460.196,116.952 459.236,117.481 459.236,117.481 C459.236,117.481 449.871,100.803 449.871,100.803 C449.871,100.803 450.235,100.307 450.235,100.307 C450.235,100.307 450.864,100.307 450.864,100.307 C450.864,100.307 460.196,116.952 460.196,116.952 z" fill="#161413"/>
      <path d="M403.843,61.161 C403.843,61.161 404.371,60.168 404.371,60.168 C404.371,60.168 420.42,68.871 420.42,68.871 C420.42,68.871 420.42,69.5 420.42,69.5 C420.42,69.5 419.892,69.863 419.892,69.863 C419.892,69.863 403.843,61.161 403.843,61.161 z" fill="#161413"/>
      <path d="M401.956,64.636 C401.956,64.636 402.486,63.643 402.486,63.643 C402.486,63.643 417.144,71.585 417.144,71.585 C417.144,71.585 416.582,72.544 416.582,72.544 C416.582,72.544 401.956,64.636 401.956,64.636 z" fill="#161413"/>
      <path d="M463.042,173.305 C463.042,173.305 463.704,173.437 463.704,173.437 C463.704,173.437 463.869,174.066 463.869,174.066 C463.869,174.066 446.066,191.869 446.066,191.869 C446.066,191.869 445.437,191.704 445.437,191.704 C445.437,191.704 445.305,191.042 445.305,191.042 C445.305,191.042 463.042,173.305 463.042,173.305 z" fill="#161413"/>
      <path d="M458.541,172.213 C458.541,172.213 459.335,173.007 459.335,173.007 C459.335,173.007 445.007,187.335 445.007,187.335 C445.007,187.335 444.213,186.541 444.213,186.541 C444.213,186.541 458.541,172.213 458.541,172.213 z" fill="#161413"/>
      <path d="M450.896,148.089 C450.896,148.089 451.194,147.461 451.194,147.461 C451.194,147.461 451.824,147.461 451.824,147.461 C451.824,147.461 464.1,172.94 464.1,172.94 C464.1,172.94 463.703,173.437 463.703,173.437 C463.703,173.437 463.041,173.305 463.041,173.305 C463.041,173.305 450.896,148.089 450.896,148.089 z" fill="#161413"/>
      <path d="M430.745,152.391 C430.745,152.391 430.513,151.3 430.513,151.3 C430.513,151.3 450.831,146.964 450.831,146.964 C450.831,146.964 451.195,147.46 451.195,147.46 C451.195,147.46 450.897,148.089 450.897,148.089 C450.897,148.089 430.745,152.391 430.745,152.391 z" fill="#161413"/>
      <path d="M420.089,178.863 C420.089,178.863 419.46,179.194 419.46,179.194 C419.46,179.194 418.931,178.831 418.931,178.831 C418.931,178.831 422.208,161.227 422.208,161.227 C422.208,161.227 423.3,161.425 423.3,161.425 C423.3,161.425 420.089,178.863 420.089,178.863 z" fill="#161413"/>
      <path d="M419.461,179.824 C419.461,179.824 419.461,179.194 419.461,179.194 C419.461,179.194 420.089,178.863 420.089,178.863 C420.089,178.863 445.305,191.041 445.305,191.041 C445.305,191.041 445.437,191.703 445.437,191.703 C445.437,191.703 444.94,192.1 444.94,192.1 C444.94,192.1 419.461,179.824 419.461,179.824 z" fill="#161413"/>
      <path d="M403.411,188.526 C403.411,188.526 402.85,187.534 402.85,187.534 C402.85,187.534 418.931,178.831 418.931,178.831 C418.931,178.831 419.46,179.194 419.46,179.194 C419.46,179.194 419.46,179.824 419.46,179.824 C419.46,179.824 403.411,188.526 403.411,188.526 z" fill="#161413"/>
      <path d="M401.526,185.052 C401.526,185.052 400.996,184.093 400.996,184.093 C400.996,184.093 415.655,176.151 415.655,176.151 C415.655,176.151 416.185,177.111 416.185,177.111 C416.185,177.111 401.526,185.052 401.526,185.052 z" fill="#161413"/>
      <path d="M458.838,132.141 C458.838,132.141 459.831,132.67 459.831,132.67 C459.831,132.67 451.824,147.461 451.824,147.461 C451.824,147.461 451.194,147.461 451.194,147.461 C451.194,147.461 450.831,146.964 450.831,146.964 C450.831,146.964 458.838,132.141 458.838,132.141 z" fill="#161413"/>
      <path d="M455.398,130.254 C455.398,130.254 456.39,130.784 456.39,130.784 C456.39,130.784 449.11,144.252 449.11,144.252 C449.11,144.252 448.118,143.722 448.118,143.722 C448.118,143.722 455.398,130.254 455.398,130.254 z" fill="#161413"/>
      <path d="M488.223,68.143 C488.223,68.143 489.15,69.036 489.15,69.036 C489.15,69.036 464.1,75.754 464.1,75.754 C464.1,75.754 463.703,75.29 463.703,75.29 C463.703,75.29 463.869,74.661 463.869,74.661 C463.869,74.661 488.223,68.143 488.223,68.143 z" fill="#161413"/>
      <path d="M494.741,43.788 C494.741,43.788 496,43.457 496,43.457 C496,43.457 489.15,69.036 489.15,69.036 C489.15,69.036 488.223,68.143 488.223,68.143 C488.223,68.143 494.741,43.788 494.741,43.788 z" fill="#161413"/>
      <path d="M490.44,44.649 C490.44,44.649 491.532,44.947 491.532,44.947 C491.532,44.947 486.006,65.529 486.006,65.529 C486.006,65.529 484.914,65.231 484.914,65.231 C484.914,65.231 490.44,44.649 490.44,44.649 z" fill="#161413"/>
      <path d="M476.94,25.952 C476.94,25.952 477.271,24.695 477.271,24.695 C477.271,24.695 496,43.458 496,43.458 C496,43.458 494.742,43.788 494.742,43.788 C494.742,43.788 476.94,25.952 476.94,25.952 z" fill="#161413"/>
      <path d="M452.585,32.471 C452.585,32.471 451.658,31.578 451.658,31.578 C451.658,31.578 477.271,24.695 477.271,24.695 C477.271,24.695 476.94,25.952 476.94,25.952 C476.94,25.952 452.585,32.471 452.585,32.471 z" fill="#161413"/>
      <path d="M455.496,35.78 C455.496,35.78 455.198,34.688 455.198,34.688 C455.198,34.688 475.781,29.196 475.781,29.196 C475.781,29.196 476.046,30.254 476.046,30.254 C476.046,30.254 455.496,35.78 455.496,35.78 z" fill="#161413"/>
      <path d="M446.066,56.826 C446.066,56.826 445.437,56.992 445.437,56.992 C445.437,56.992 444.941,56.594 444.941,56.594 C444.941,56.594 451.659,31.578 451.659,31.578 C451.659,31.578 452.585,32.471 452.585,32.471 C452.585,32.471 446.066,56.826 446.066,56.826 z" fill="#161413"/>
      <path d="M341.698,32.14 C341.698,32.14 342.625,31.214 342.625,31.214 C342.625,31.214 349.673,57.554 349.673,57.554 C349.673,57.554 349.21,57.951 349.21,57.951 C349.21,57.951 348.581,57.785 348.581,57.785 C348.581,57.785 341.698,32.14 341.698,32.14 z" fill="#161413"/>
      <path d="M316.053,25.258 C316.053,25.258 315.689,24 315.689,24 C315.689,24 342.625,31.214 342.625,31.214 C342.625,31.214 341.698,32.14 341.698,32.14 C341.698,32.14 316.053,25.258 316.053,25.258 z" fill="#161413"/>
      <path d="M316.914,29.559 C316.914,29.559 317.178,28.467 317.178,28.467 C317.178,28.467 339.084,34.358 339.084,34.358 C339.084,34.358 338.786,35.416 338.786,35.416 C338.786,35.416 316.914,29.559 316.914,29.559 z" fill="#161413"/>
      <path d="M297.258,44.053 C297.258,44.053 296,43.689 296,43.689 C296,43.689 315.689,24 315.689,24 C315.689,24 316.053,25.258 316.053,25.258 C316.053,25.258 297.258,44.053 297.258,44.053 z" fill="#161413"/>
      <path d="M304.14,69.698 C304.14,69.698 303.214,70.625 303.214,70.625 C303.214,70.625 296,43.689 296,43.689 C296,43.689 297.258,44.053 297.258,44.053 C297.258,44.053 304.14,69.698 304.14,69.698 z" fill="#161413"/>
      <path d="M307.416,66.786 C307.416,66.786 306.358,67.084 306.358,67.084 C306.358,67.084 300.467,45.178 300.467,45.178 C300.467,45.178 301.559,44.914 301.559,44.914 C301.559,44.914 307.416,66.786 307.416,66.786 z" fill="#161413"/>
      <path d="M329.785,76.581 C329.785,76.581 329.951,77.21 329.951,77.21 C329.951,77.21 329.554,77.673 329.554,77.673 C329.554,77.673 303.214,70.625 303.214,70.625 C303.214,70.625 304.14,69.698 304.14,69.698 C304.14,69.698 329.785,76.581 329.785,76.581 z" fill="#161413"/>
      <path d="M452.585,216.223 C452.585,216.223 451.659,217.15 451.659,217.15 C451.659,217.15 444.941,192.1 444.941,192.1 C444.941,192.1 445.437,191.703 445.437,191.703 C445.437,191.703 446.066,191.869 446.066,191.869 C446.066,191.869 452.585,216.223 452.585,216.223 z" fill="#161413"/>
      <path d="M476.94,222.741 C476.94,222.741 477.271,224 477.271,224 C477.271,224 451.658,217.15 451.658,217.15 C451.658,217.15 452.585,216.223 452.585,216.223 C452.585,216.223 476.94,222.741 476.94,222.741 z" fill="#161413"/>
      <path d="M476.046,218.44 C476.046,218.44 475.781,219.532 475.781,219.532 C475.781,219.532 455.198,214.006 455.198,214.006 C455.198,214.006 455.496,212.914 455.496,212.914 C455.496,212.914 476.046,218.44 476.046,218.44 z" fill="#161413"/>
      <path d="M494.742,204.94 C494.742,204.94 496,205.271 496,205.271 C496,205.271 477.271,224 477.271,224 C477.271,224 476.94,222.742 476.94,222.742 C476.94,222.742 494.742,204.94 494.742,204.94 z" fill="#161413"/>
      <path d="M488.223,180.585 C488.223,180.585 489.15,179.658 489.15,179.658 C489.15,179.658 496,205.271 496,205.271 C496,205.271 494.741,204.94 494.741,204.94 C494.741,204.94 488.223,180.585 488.223,180.585 z" fill="#161413"/>
      <path d="M484.914,183.496 C484.914,183.496 486.006,183.198 486.006,183.198 C486.006,183.198 491.532,203.781 491.532,203.781 C491.532,203.781 490.44,204.046 490.44,204.046 C490.44,204.046 484.914,183.496 484.914,183.496 z" fill="#161413"/>
      <path d="M463.869,174.066 C463.869,174.066 463.703,173.437 463.703,173.437 C463.703,173.437 464.1,172.941 464.1,172.941 C464.1,172.941 489.15,179.659 489.15,179.659 C489.15,179.659 488.223,180.585 488.223,180.585 C488.223,180.585 463.869,174.066 463.869,174.066 z" fill="#161413"/>
      <path d="M304.471,180.585 C304.471,180.585 303.578,179.659 303.578,179.659 C303.578,179.659 328.594,172.941 328.594,172.941 C328.594,172.941 328.992,173.437 328.992,173.437 C328.992,173.437 328.826,174.066 328.826,174.066 C328.826,174.066 304.471,180.585 304.471,180.585 z" fill="#161413"/>
      <path d="M297.952,204.94 C297.952,204.94 296.695,205.271 296.695,205.271 C296.695,205.271 303.578,179.658 303.578,179.658 C303.578,179.658 304.471,180.585 304.471,180.585 C304.471,180.585 297.952,204.94 297.952,204.94 z" fill="#161413"/>
      <path d="M302.254,204.046 C302.254,204.046 301.196,203.781 301.196,203.781 C301.196,203.781 306.688,183.198 306.688,183.198 C306.688,183.198 307.78,183.496 307.78,183.496 C307.78,183.496 302.254,204.046 302.254,204.046 z" fill="#161413"/>
      <path d="M315.788,222.742 C315.788,222.742 315.458,224 315.458,224 C315.458,224 296.695,205.271 296.695,205.271 C296.695,205.271 297.952,204.94 297.952,204.94 C297.952,204.94 315.788,222.742 315.788,222.742 z" fill="#161413"/>
      <path d="M340.143,216.223 C340.143,216.223 341.036,217.15 341.036,217.15 C341.036,217.15 315.457,224 315.457,224 C315.457,224 315.788,222.741 315.788,222.741 C315.788,222.741 340.143,216.223 340.143,216.223 z" fill="#161413"/>
      <path d="M337.231,212.914 C337.231,212.914 337.529,214.006 337.529,214.006 C337.529,214.006 316.947,219.532 316.947,219.532 C316.947,219.532 316.649,218.44 316.649,218.44 C316.649,218.44 337.231,212.914 337.231,212.914 z" fill="#161413"/>
      <path d="M346.661,191.869 C346.661,191.869 347.29,191.703 347.29,191.703 C347.29,191.703 347.754,192.1 347.754,192.1 C347.754,192.1 341.036,217.15 341.036,217.15 C341.036,217.15 340.143,216.223 340.143,216.223 C340.143,216.223 346.661,191.869 346.661,191.869 z" fill="#161413"/>
      <path d="M396.753,122.794 C396.292,120.253 394.831,119.014 392.29,119.014 C390.733,119.014 389.478,119.506 388.621,120.459 C387.572,121.603 387.001,123.255 387.001,125.129 C387.001,127.035 387.588,128.671 388.684,129.799 C389.574,130.72 390.717,131.149 392.226,131.149 C395.053,131.149 396.642,129.624 396.991,126.558 C396.991,126.558 395.467,126.558 395.467,126.558 C395.339,127.353 395.181,127.893 394.942,128.353 C394.466,129.306 393.481,129.846 392.242,129.846 C389.939,129.846 388.478,128.004 388.478,125.113 C388.478,122.143 389.875,120.316 392.115,120.316 C393.052,120.316 393.926,120.602 394.402,121.047 C394.831,121.444 395.069,121.936 395.244,122.794 C395.244,122.794 396.753,122.794 396.753,122.794 z" fill="#161413"/>
      <path d="M405.31,130.784 C405.31,130.784 405.31,122.461 405.31,122.461 C405.31,122.461 403.992,122.461 403.992,122.461 C403.992,122.461 403.992,127.178 403.992,127.178 C403.992,128.878 403.102,129.989 401.721,129.989 C400.672,129.989 400.005,129.354 400.005,128.353 C400.005,128.353 400.005,122.461 400.005,122.461 C400.005,122.461 398.687,122.461 398.687,122.461 C398.687,122.461 398.687,128.878 398.687,128.878 C398.687,130.259 399.719,131.149 401.339,131.149 C402.562,131.149 403.341,130.72 404.119,129.624 C404.119,129.624 404.119,130.784 404.119,130.784 C404.119,130.784 405.31,130.784 405.31,130.784 z" fill="#161413"/>
      <path d="M389.945,117.315 C389.945,117.315 389.15,118.11 389.15,118.11 C389.15,118.11 373.499,102.326 373.499,102.326 C373.499,102.326 374.292,101.565 374.292,101.565 C374.292,101.565 389.945,117.315 389.945,117.315 z" fill="#161413"/>
      <path d="M400.335,120.724 C400.335,120.724 406.39,110.797 406.39,110.797 C406.39,110.797 407.383,113.841 407.383,113.841 C407.383,113.841 410.395,114.9 410.395,114.9 C410.395,114.9 400.335,120.724 400.335,120.724 z" fill="#161413"/>
      <path d="M407.78,114.238 C407.78,114.238 406.986,113.444 406.986,113.444 C406.986,113.444 418.336,102.392 418.336,102.392 C418.336,102.392 419.097,103.186 419.097,103.186 C419.097,103.186 407.78,114.238 407.78,114.238 z" fill="#161413"/>
      <path d="M404.472,133.728 C404.472,133.728 405.266,132.934 405.266,132.934 C405.266,132.934 418.833,146.866 418.833,146.866 C418.833,146.866 418.039,147.66 418.039,147.66 C418.039,147.66 404.472,133.728 404.472,133.728 z" fill="#161413"/>
      <path d="M388.984,132.141 C388.984,132.141 383.193,142.2 383.193,142.2 C383.193,142.2 382.135,139.188 382.135,139.188 C382.135,139.188 379.09,138.195 379.09,138.195 C379.09,138.195 388.984,132.141 388.984,132.141 z" fill="#161413"/>
      <path d="M381.704,138.792 C381.704,138.792 382.532,139.586 382.532,139.586 C382.532,139.586 374.657,147.66 374.657,147.66 C374.657,147.66 373.83,146.866 373.83,146.866 C373.83,146.866 381.704,138.792 381.704,138.792 z" fill="#161413"/>
    </g>
    <g>
      <path d="M207.389,118.049 C207.389,118.049 205.884,118.049 205.884,118.049 C205.884,118.049 205.884,128.241 205.884,128.241 C205.884,128.241 199.368,118.049 199.368,118.049 C199.368,118.049 197.642,118.049 197.642,118.049 C197.642,118.049 197.642,130.515 197.642,130.515 C197.642,130.515 199.147,130.515 199.147,130.515 C199.147,130.515 199.147,120.409 199.147,120.409 C199.147,120.409 205.595,130.515 205.595,130.515 C205.595,130.515 207.389,130.515 207.389,130.515 C207.389,130.515 207.389,118.049 207.389,118.049 z" fill="#161413"/>
      <path d="M169.116,146.143 C169.116,146.143 167.612,146.143 167.612,146.143 C167.612,146.143 167.612,156.335 167.612,156.335 C167.612,156.335 161.095,146.143 161.095,146.143 C161.095,146.143 159.368,146.143 159.368,146.143 C159.368,146.143 159.368,158.609 159.368,158.609 C159.368,158.609 160.873,158.609 160.873,158.609 C160.873,158.609 160.873,148.503 160.873,148.503 C160.873,148.503 167.32,158.609 167.32,158.609 C167.32,158.609 169.116,158.609 169.116,158.609 C169.116,158.609 169.116,146.143 169.116,146.143 z" fill="#161413"/>
      <path d="M141.022,184.824 C141.022,184.824 139.517,184.824 139.517,184.824 C139.517,184.824 139.517,195.016 139.517,195.016 C139.517,195.016 133.001,184.824 133.001,184.824 C133.001,184.824 131.274,184.824 131.274,184.824 C131.274,184.824 131.274,197.29 131.274,197.29 C131.274,197.29 132.778,197.29 132.778,197.29 C132.778,197.29 132.778,187.184 132.778,187.184 C132.778,187.184 139.226,197.29 139.226,197.29 C139.226,197.29 141.022,197.29 141.022,197.29 C141.022,197.29 141.022,184.824 141.022,184.824 z" fill="#161413"/>
      <path d="M112.927,146.143 C112.927,146.143 111.423,146.143 111.423,146.143 C111.423,146.143 111.423,156.335 111.423,156.335 C111.423,156.335 104.906,146.143 104.906,146.143 C104.906,146.143 103.179,146.143 103.179,146.143 C103.179,146.143 103.179,158.609 103.179,158.609 C103.179,158.609 104.684,158.609 104.684,158.609 C104.684,158.609 104.684,148.503 104.684,148.503 C104.684,148.503 111.132,158.609 111.132,158.609 C111.132,158.609 112.927,158.609 112.927,158.609 C112.927,158.609 112.927,146.143 112.927,146.143 z" fill="#161413"/>
      <path d="M123.517,152.931 C123.517,152.931 123.517,158.609 123.517,158.609 C123.517,158.609 125.107,158.609 125.107,158.609 C125.107,158.609 125.107,146.143 125.107,146.143 C125.107,146.143 123.517,146.143 123.517,146.143 C123.517,146.143 123.517,151.53 123.517,151.53 C123.517,151.53 117.104,151.53 117.104,151.53 C117.104,151.53 117.104,146.143 117.104,146.143 C117.104,146.143 115.513,146.143 115.513,146.143 C115.513,146.143 115.513,158.609 115.513,158.609 C115.513,158.609 117.121,158.609 117.121,158.609 C117.121,158.609 117.121,152.931 117.121,152.931 C117.121,152.931 123.517,152.931 123.517,152.931 z" fill="#161413"/>
      <path d="M74.247,118.049 C74.247,118.049 72.742,118.049 72.742,118.049 C72.742,118.049 72.742,128.241 72.742,128.241 C72.742,128.241 66.226,118.049 66.226,118.049 C66.226,118.049 64.498,118.049 64.498,118.049 C64.498,118.049 64.498,130.515 64.498,130.515 C64.498,130.515 66.003,130.515 66.003,130.515 C66.003,130.515 66.003,120.409 66.003,120.409 C66.003,120.409 72.451,130.515 72.451,130.515 C72.451,130.515 74.247,130.515 74.247,130.515 C74.247,130.515 74.247,118.049 74.247,118.049 z" fill="#161413"/>
      <path d="M112.927,90.361 C112.927,90.361 111.423,90.361 111.423,90.361 C111.423,90.361 111.423,100.553 111.423,100.553 C111.423,100.553 104.906,90.361 104.906,90.361 C104.906,90.361 103.179,90.361 103.179,90.361 C103.179,90.361 103.179,102.828 103.179,102.828 C103.179,102.828 104.684,102.828 104.684,102.828 C104.684,102.828 104.684,92.722 104.684,92.722 C104.684,92.722 111.132,102.828 111.132,102.828 C111.132,102.828 112.927,102.828 112.927,102.828 C112.927,102.828 112.927,90.361 112.927,90.361 z" fill="#161413"/>
      <path d="M141.022,51.681 C141.022,51.681 139.517,51.681 139.517,51.681 C139.517,51.681 139.517,61.873 139.517,61.873 C139.517,61.873 133.001,51.681 133.001,51.681 C133.001,51.681 131.274,51.681 131.274,51.681 C131.274,51.681 131.274,64.147 131.274,64.147 C131.274,64.147 132.778,64.147 132.778,64.147 C132.778,64.147 132.778,54.041 132.778,54.041 C132.778,54.041 139.226,64.147 139.226,64.147 C139.226,64.147 141.022,64.147 141.022,64.147 C141.022,64.147 141.022,51.681 141.022,51.681 z" fill="#161413"/>
      <path d="M154.869,97.15 C154.869,97.15 154.869,102.828 154.869,102.828 C154.869,102.828 156.459,102.828 156.459,102.828 C156.459,102.828 156.459,90.361 156.459,90.361 C156.459,90.361 154.869,90.361 154.869,90.361 C154.869,90.361 154.869,95.748 154.869,95.748 C154.869,95.748 148.456,95.748 148.456,95.748 C148.456,95.748 148.456,90.361 148.456,90.361 C148.456,90.361 146.865,90.361 146.865,90.361 C146.865,90.361 146.865,102.828 146.865,102.828 C146.865,102.828 148.473,102.828 148.473,102.828 C148.473,102.828 148.473,97.15 148.473,97.15 C148.473,97.15 154.869,97.15 154.869,97.15 z" fill="#161413"/>
      <path d="M169.116,90.361 C169.116,90.361 167.612,90.361 167.612,90.361 C167.612,90.361 167.612,100.553 167.612,100.553 C167.612,100.553 161.095,90.361 161.095,90.361 C161.095,90.361 159.368,90.361 159.368,90.361 C159.368,90.361 159.368,102.828 159.368,102.828 C159.368,102.828 160.873,102.828 160.873,102.828 C160.873,102.828 160.873,92.722 160.873,92.722 C160.873,92.722 167.32,102.828 167.32,102.828 C167.32,102.828 169.116,102.828 169.116,102.828 C169.116,102.828 169.116,90.361 169.116,90.361 z" fill="#161413"/>
      <path d="M216.619,24 C216.619,24 216.375,25.059 216.375,25.059 C216.375,25.059 191.049,31.819 191.049,31.819 C191.049,31.819 190.235,31.086 190.235,31.086 C190.235,31.086 216.619,24 216.619,24 z" fill="#161413"/>
      <path d="M214.909,29.457 C214.909,29.457 215.153,30.352 215.153,30.352 C215.153,30.352 194.713,35.89 194.713,35.89 C194.713,35.89 194.468,34.912 194.468,34.912 C194.468,34.912 214.909,29.457 214.909,29.457 z" fill="#161413"/>
      <path d="M236,43.301 C236,43.301 234.86,43.627 234.86,43.627 C234.86,43.627 216.375,25.059 216.375,25.059 C216.375,25.059 216.619,24 216.619,24 C216.619,24 236,43.301 236,43.301 z" fill="#161413"/>
      <path d="M228.915,69.685 C228.915,69.685 228.101,68.952 228.101,68.952 C228.101,68.952 234.86,43.627 234.86,43.627 C234.86,43.627 236,43.301 236,43.301 C236,43.301 228.915,69.685 228.915,69.685 z" fill="#161413"/>
      <path d="M225.007,65.531 C225.007,65.531 224.111,65.287 224.111,65.287 C224.111,65.287 229.567,44.765 229.567,44.765 C229.567,44.765 230.544,45.01 230.544,45.01 C230.544,45.01 225.007,65.531 225.007,65.531 z" fill="#161413"/>
      <path d="M202.938,76.688 C202.938,76.688 202.612,76.281 202.612,76.281 C202.612,76.281 202.775,75.71 202.775,75.71 C202.775,75.71 228.101,68.952 228.101,68.952 C228.101,68.952 228.915,69.685 228.915,69.685 C228.915,69.685 202.938,76.688 202.938,76.688 z" fill="#161413"/>
      <path d="M191.049,100.14 C191.049,100.14 190.48,100.14 190.48,100.14 C190.48,100.14 190.235,99.57 190.235,99.57 C190.235,99.57 202.042,76.362 202.042,76.362 C202.042,76.362 202.612,76.281 202.612,76.281 C202.612,76.281 202.938,76.688 202.938,76.688 C202.938,76.688 191.049,100.14 191.049,100.14 z" fill="#161413"/>
      <path d="M199.762,117.241 C199.762,117.241 198.867,117.648 198.867,117.648 C198.867,117.648 190.154,100.547 190.154,100.547 C190.154,100.547 190.48,100.14 190.48,100.14 C190.48,100.14 191.049,100.14 191.049,100.14 C191.049,100.14 199.762,117.241 199.762,117.241 z" fill="#161413"/>
      <path d="M195.447,119.44 C195.447,119.44 194.551,119.848 194.551,119.848 C194.551,119.848 186.896,104.701 186.896,104.701 C186.896,104.701 187.71,104.294 187.71,104.294 C187.71,104.294 195.447,119.44 195.447,119.44 z" fill="#161413"/>
      <path d="M191.049,147.861 C191.049,147.861 190.48,147.861 190.48,147.861 C190.48,147.861 190.153,147.371 190.153,147.371 C190.153,147.371 198.215,131.655 198.215,131.655 C198.215,131.655 199.029,132.062 199.029,132.062 C199.029,132.062 191.049,147.861 191.049,147.861 z" fill="#161413"/>
      <path d="M202.938,171.231 C202.938,171.231 202.612,171.72 202.612,171.72 C202.612,171.72 202.042,171.558 202.042,171.558 C202.042,171.558 190.235,148.349 190.235,148.349 C190.235,148.349 190.48,147.861 190.48,147.861 C190.48,147.861 191.049,147.861 191.049,147.861 C191.049,147.861 202.938,171.231 202.938,171.231 z" fill="#161413"/>
      <path d="M228.915,178.234 C228.915,178.234 228.101,179.049 228.101,179.049 C228.101,179.049 202.775,172.208 202.775,172.208 C202.775,172.208 202.612,171.72 202.612,171.72 C202.612,171.72 202.938,171.231 202.938,171.231 C202.938,171.231 228.915,178.234 228.915,178.234 z" fill="#161413"/>
      <path d="M224.681,182.063 C224.681,182.063 224.436,183.039 224.436,183.039 C224.436,183.039 203.915,177.501 203.915,177.501 C203.915,177.501 204.241,176.606 204.241,176.606 C204.241,176.606 224.681,182.063 224.681,182.063 z" fill="#161413"/>
      <path d="M236,204.619 C236,204.619 234.86,204.375 234.86,204.375 C234.86,204.375 228.101,179.049 228.101,179.049 C228.101,179.049 228.915,178.234 228.915,178.234 C228.915,178.234 236,204.619 236,204.619 z" fill="#161413"/>
      <path d="M216.619,224 C216.619,224 216.375,222.86 216.375,222.86 C216.375,222.86 234.86,204.375 234.86,204.375 C234.86,204.375 236,204.619 236,204.619 C236,204.619 216.619,224 216.619,224 z" fill="#161413"/>
      <path d="M215.397,218.381 C215.397,218.381 214.746,217.73 214.746,217.73 C214.746,217.73 229.73,202.665 229.73,202.665 C229.73,202.665 230.381,203.397 230.381,203.397 C230.381,203.397 215.397,218.381 215.397,218.381 z" fill="#161413"/>
      <path d="M190.235,216.915 C190.235,216.915 191.049,216.101 191.049,216.101 C191.049,216.101 216.375,222.86 216.375,222.86 C216.375,222.86 216.619,224 216.619,224 C216.619,224 190.235,216.915 190.235,216.915 z" fill="#161413"/>
      <path d="M183.313,190.938 C183.313,190.938 183.72,190.612 183.72,190.612 C183.72,190.612 184.289,190.775 184.289,190.775 C184.289,190.775 191.049,216.101 191.049,216.101 C191.049,216.101 190.235,216.915 190.235,216.915 C190.235,216.915 183.313,190.938 183.313,190.938 z" fill="#161413"/>
      <path d="M188.606,192.16 C188.606,192.16 189.582,191.915 189.582,191.915 C189.582,191.915 195.039,212.437 195.039,212.437 C195.039,212.437 194.061,212.681 194.061,212.681 C194.061,212.681 188.606,192.16 188.606,192.16 z" fill="#161413"/>
      <path d="M184.289,190.775 C184.289,190.775 183.72,190.612 183.72,190.612 C183.72,190.612 183.639,190.042 183.639,190.042 C183.639,190.042 202.042,171.557 202.042,171.557 C202.042,171.557 202.612,171.72 202.612,171.72 C202.612,171.72 202.775,172.208 202.775,172.208 C202.775,172.208 184.289,190.775 184.289,190.775 z" fill="#161413"/>
      <path d="M159.859,179.049 C159.859,179.049 159.859,178.479 159.859,178.479 C159.859,178.479 160.43,178.234 160.43,178.234 C160.43,178.234 183.639,190.042 183.639,190.042 C183.639,190.042 183.72,190.612 183.72,190.612 C183.72,190.612 183.313,190.938 183.313,190.938 C183.313,190.938 159.859,179.049 159.859,179.049 z" fill="#161413"/>
      <path d="M163.524,159.179 C163.524,159.179 164.502,159.343 164.502,159.343 C164.502,159.343 160.43,178.234 160.43,178.234 C160.43,178.234 159.859,178.479 159.859,178.479 C159.859,178.479 159.452,178.153 159.452,178.153 C159.452,178.153 163.524,159.179 163.524,159.179 z" fill="#161413"/>
      <path d="M169.469,152.502 C169.469,152.502 169.307,151.525 169.307,151.525 C169.307,151.525 190.154,147.371 190.154,147.371 C190.154,147.371 190.48,147.861 190.48,147.861 C190.48,147.861 190.235,148.349 190.235,148.349 C190.235,148.349 169.469,152.502 169.469,152.502 z" fill="#161413"/>
      <path d="M170.446,157.226 C170.446,157.226 170.202,156.247 170.202,156.247 C170.202,156.247 187.629,152.828 187.629,152.828 C187.629,152.828 187.792,153.804 187.792,153.804 C187.792,153.804 170.446,157.226 170.446,157.226 z" fill="#161413"/>
      <path d="M142.27,187.925 C142.27,187.925 141.863,187.111 141.863,187.111 C141.863,187.111 159.452,178.153 159.452,178.153 C159.452,178.153 159.859,178.479 159.859,178.479 C159.859,178.479 159.859,179.049 159.859,179.049 C159.859,179.049 142.27,187.925 142.27,187.925 z" fill="#161413"/>
      <path d="M140.072,183.691 C140.072,183.691 139.665,182.794 139.665,182.794 C139.665,182.794 155.218,174.815 155.218,174.815 C155.218,174.815 155.707,175.71 155.707,175.71 C155.707,175.71 140.072,183.691 140.072,183.691 z" fill="#161413"/>
      <path d="M112.14,179.049 C112.14,179.049 112.14,178.479 112.14,178.479 C112.14,178.479 112.547,178.153 112.547,178.153 C112.547,178.153 130.136,187.111 130.136,187.111 C130.136,187.111 129.729,188.007 129.729,188.007 C129.729,188.007 112.14,179.049 112.14,179.049 z" fill="#161413"/>
      <path d="M88.688,190.938 C88.688,190.938 88.281,190.612 88.281,190.612 C88.281,190.612 88.362,190.042 88.362,190.042 C88.362,190.042 111.571,178.234 111.571,178.234 C111.571,178.234 112.14,178.479 112.14,178.479 C112.14,178.479 112.14,179.049 112.14,179.049 C112.14,179.049 88.688,190.938 88.688,190.938 z" fill="#161413"/>
      <path d="M89.42,185.156 C89.42,185.156 89.013,184.342 89.013,184.342 C89.013,184.342 106.603,175.303 106.603,175.303 C106.603,175.303 107.011,176.199 107.011,176.199 C107.011,176.199 89.42,185.156 89.42,185.156 z" fill="#161413"/>
      <path d="M81.766,216.915 C81.766,216.915 80.952,216.101 80.952,216.101 C80.952,216.101 87.71,190.775 87.71,190.775 C87.71,190.775 88.281,190.612 88.281,190.612 C88.281,190.612 88.688,190.938 88.688,190.938 C88.688,190.938 81.766,216.915 81.766,216.915 z" fill="#161413"/>
      <path d="M55.301,224 C55.301,224 55.625,222.86 55.625,222.86 C55.625,222.86 80.952,216.101 80.952,216.101 C80.952,216.101 81.766,216.915 81.766,216.915 C81.766,216.915 55.301,224 55.301,224 z" fill="#161413"/>
      <path d="M57.01,218.544 C57.01,218.544 56.765,217.567 56.765,217.567 C56.765,217.567 77.288,212.111 77.288,212.111 C77.288,212.111 77.531,213.007 77.531,213.007 C77.531,213.007 57.01,218.544 57.01,218.544 z" fill="#161413"/>
      <path d="M36,204.619 C36,204.619 37.059,204.375 37.059,204.375 C37.059,204.375 55.625,222.86 55.625,222.86 C55.625,222.86 55.301,224 55.301,224 C55.301,224 36,204.619 36,204.619 z" fill="#161413"/>
      <path d="M43.086,178.234 C43.086,178.234 43.9,179.049 43.9,179.049 C43.9,179.049 37.059,204.375 37.059,204.375 C37.059,204.375 36,204.619 36,204.619 C36,204.619 43.086,178.234 43.086,178.234 z" fill="#161413"/>
      <path d="M46.912,182.387 C46.912,182.387 47.889,182.713 47.889,182.713 C47.889,182.713 42.352,203.153 42.352,203.153 C42.352,203.153 41.457,202.909 41.457,202.909 C41.457,202.909 46.912,182.387 46.912,182.387 z" fill="#161413"/>
      <path d="M68.98,171.231 C68.98,171.231 69.306,171.72 69.306,171.72 C69.306,171.72 69.225,172.208 69.225,172.208 C69.225,172.208 43.9,179.049 43.9,179.049 C43.9,179.049 43.086,178.234 43.086,178.234 C43.086,178.234 68.98,171.231 68.98,171.231 z" fill="#161413"/>
      <path d="M69.225,172.208 C69.225,172.208 69.306,171.72 69.306,171.72 C69.306,171.72 69.959,171.557 69.959,171.557 C69.959,171.557 88.362,190.042 88.362,190.042 C88.362,190.042 88.281,190.612 88.281,190.612 C88.281,190.612 87.71,190.775 87.71,190.775 C87.71,190.775 69.225,172.208 69.225,172.208 z" fill="#161413"/>
      <path d="M80.952,147.861 C80.952,147.861 81.521,147.861 81.521,147.861 C81.521,147.861 81.766,148.349 81.766,148.349 C81.766,148.349 69.959,171.558 69.959,171.558 C69.959,171.558 69.306,171.72 69.306,171.72 C69.306,171.72 68.98,171.231 68.98,171.231 C68.98,171.231 80.952,147.861 80.952,147.861 z" fill="#161413"/>
      <path d="M83.802,152.909 C83.802,152.909 84.617,153.397 84.617,153.397 C84.617,153.397 75.659,170.986 75.659,170.986 C75.659,170.986 74.762,170.498 74.762,170.498 C74.762,170.498 83.802,152.909 83.802,152.909 z" fill="#161413"/>
      <path d="M102.613,151.525 C102.613,151.525 102.449,152.502 102.449,152.502 C102.449,152.502 81.766,148.349 81.766,148.349 C81.766,148.349 81.521,147.861 81.521,147.861 C81.521,147.861 81.847,147.371 81.847,147.371 C81.847,147.371 102.613,151.525 102.613,151.525 z" fill="#161413"/>
      <path d="M107.499,159.343 C107.499,159.343 108.394,159.179 108.394,159.179 C108.394,159.179 112.547,178.153 112.547,178.153 C112.547,178.153 112.14,178.479 112.14,178.479 C112.14,178.479 111.571,178.234 111.571,178.234 C111.571,178.234 107.499,159.343 107.499,159.343 z" fill="#161413"/>
      <path d="M72.89,132.062 C72.89,132.062 73.785,131.574 73.785,131.574 C73.785,131.574 81.847,147.371 81.847,147.371 C81.847,147.371 81.521,147.861 81.521,147.861 C81.521,147.861 80.952,147.861 80.952,147.861 C80.952,147.861 72.89,132.062 72.89,132.062 z" fill="#161413"/>
      <path d="M80.952,100.14 C80.952,100.14 81.521,100.14 81.521,100.14 C81.521,100.14 81.847,100.547 81.847,100.547 C81.847,100.547 73.133,117.648 73.133,117.648 C73.133,117.648 72.238,117.16 72.238,117.16 C72.238,117.16 80.952,100.14 80.952,100.14 z" fill="#161413"/>
      <path d="M84.209,104.294 C84.209,104.294 85.105,104.701 85.105,104.701 C85.105,104.701 77.369,119.848 77.369,119.848 C77.369,119.848 76.554,119.359 76.554,119.359 C76.554,119.359 84.209,104.294 84.209,104.294 z" fill="#161413"/>
      <path d="M68.98,76.688 C68.98,76.688 69.306,76.281 69.306,76.281 C69.306,76.281 69.959,76.362 69.959,76.362 C69.959,76.362 81.766,99.57 81.766,99.57 C81.766,99.57 81.521,100.14 81.521,100.14 C81.521,100.14 80.952,100.14 80.952,100.14 C80.952,100.14 68.98,76.688 68.98,76.688 z" fill="#161413"/>
      <path d="M43.086,69.685 C43.086,69.685 43.9,68.952 43.9,68.952 C43.9,68.952 69.225,75.71 69.225,75.71 C69.225,75.71 69.306,76.281 69.306,76.281 C69.306,76.281 68.98,76.688 68.98,76.688 C68.98,76.688 43.086,69.685 43.086,69.685 z" fill="#161413"/>
      <path d="M47.32,65.857 C47.32,65.857 47.564,64.88 47.564,64.88 C47.564,64.88 68.004,70.417 68.004,70.417 C68.004,70.417 67.759,71.314 67.759,71.314 C67.759,71.314 47.32,65.857 47.32,65.857 z" fill="#161413"/>
      <path d="M36,43.301 C36,43.301 37.059,43.627 37.059,43.627 C37.059,43.627 43.9,68.952 43.9,68.952 C43.9,68.952 43.086,69.685 43.086,69.685 C43.086,69.685 36,43.301 36,43.301 z" fill="#161413"/>
      <path d="M55.301,24 C55.301,24 55.625,25.059 55.625,25.059 C55.625,25.059 37.059,43.627 37.059,43.627 C37.059,43.627 36,43.301 36,43.301 C36,43.301 55.301,24 55.301,24 z" fill="#161413"/>
      <path d="M56.603,29.538 C56.603,29.538 57.254,30.271 57.254,30.271 C57.254,30.271 42.271,45.255 42.271,45.255 C42.271,45.255 41.538,44.522 41.538,44.522 C41.538,44.522 56.603,29.538 56.603,29.538 z" fill="#161413"/>
      <path d="M81.766,31.086 C81.766,31.086 80.952,31.819 80.952,31.819 C80.952,31.819 55.625,25.059 55.625,25.059 C55.625,25.059 55.301,24 55.301,24 C55.301,24 81.766,31.086 81.766,31.086 z" fill="#161413"/>
      <path d="M88.688,56.98 C88.688,56.98 88.281,57.306 88.281,57.306 C88.281,57.306 87.71,57.144 87.71,57.144 C87.71,57.144 80.952,31.819 80.952,31.819 C80.952,31.819 81.766,31.086 81.766,31.086 C81.766,31.086 88.688,56.98 88.688,56.98 z" fill="#161413"/>
      <path d="M83.395,55.759 C83.395,55.759 82.417,56.004 82.417,56.004 C82.417,56.004 76.961,35.483 76.961,35.483 C76.961,35.483 77.857,35.238 77.857,35.238 C77.857,35.238 83.395,55.759 83.395,55.759 z" fill="#161413"/>
      <path d="M87.71,57.144 C87.71,57.144 88.281,57.306 88.281,57.306 C88.281,57.306 88.362,57.877 88.362,57.877 C88.362,57.877 69.959,76.362 69.959,76.362 C69.959,76.362 69.306,76.281 69.306,76.281 C69.306,76.281 69.225,75.71 69.225,75.71 C69.225,75.71 87.71,57.144 87.71,57.144 z" fill="#161413"/>
      <path d="M112.14,68.952 C112.14,68.952 112.14,69.44 112.14,69.44 C112.14,69.44 111.571,69.766 111.571,69.766 C111.571,69.766 88.362,57.877 88.362,57.877 C88.362,57.877 88.281,57.306 88.281,57.306 C88.281,57.306 88.688,56.98 88.688,56.98 C88.688,56.98 112.14,68.952 112.14,68.952 z" fill="#161413"/>
      <path d="M108.394,90.043 C108.394,90.043 107.499,89.88 107.499,89.88 C107.499,89.88 111.571,69.766 111.571,69.766 C111.571,69.766 112.14,69.44 112.14,69.44 C112.14,69.44 112.547,69.766 112.547,69.766 C112.547,69.766 108.394,90.043 108.394,90.043 z" fill="#161413"/>
      <path d="M103.671,89.065 C103.671,89.065 102.775,88.903 102.775,88.903 C102.775,88.903 106.196,72.209 106.196,72.209 C106.196,72.209 107.092,72.371 107.092,72.371 C107.092,72.371 103.671,89.065 103.671,89.065 z" fill="#161413"/>
      <path d="M102.368,95.418 C102.368,95.418 102.532,96.394 102.532,96.394 C102.532,96.394 81.847,100.547 81.847,100.547 C81.847,100.547 81.521,100.14 81.521,100.14 C81.521,100.14 81.766,99.57 81.766,99.57 C81.766,99.57 102.368,95.418 102.368,95.418 z" fill="#161413"/>
      <path d="M129.729,59.994 C129.729,59.994 130.136,60.809 130.136,60.809 C130.136,60.809 112.547,69.766 112.547,69.766 C112.547,69.766 112.14,69.44 112.14,69.44 C112.14,69.44 112.14,68.952 112.14,68.952 C112.14,68.952 129.729,59.994 129.729,59.994 z" fill="#161413"/>
      <path d="M159.859,68.952 C159.859,68.952 159.859,69.44 159.859,69.44 C159.859,69.44 159.452,69.766 159.452,69.766 C159.452,69.766 141.863,60.89 141.863,60.89 C141.863,60.89 142.27,59.994 142.27,59.994 C142.27,59.994 159.859,68.952 159.859,68.952 z" fill="#161413"/>
      <path d="M155.707,72.209 C155.707,72.209 155.218,73.105 155.218,73.105 C155.218,73.105 139.665,65.124 139.665,65.124 C139.665,65.124 140.072,64.309 140.072,64.309 C140.072,64.309 155.707,72.209 155.707,72.209 z" fill="#161413"/>
      <path d="M164.502,89.88 C164.502,89.88 163.524,90.043 163.524,90.043 C163.524,90.043 159.452,69.766 159.452,69.766 C159.452,69.766 159.859,69.44 159.859,69.44 C159.859,69.44 160.43,69.766 160.43,69.766 C160.43,69.766 164.502,89.88 164.502,89.88 z" fill="#161413"/>
      <path d="M169.224,96.394 C169.224,96.394 169.469,95.418 169.469,95.418 C169.469,95.418 190.235,99.57 190.235,99.57 C190.235,99.57 190.48,100.14 190.48,100.14 C190.48,100.14 190.153,100.547 190.153,100.547 C190.153,100.547 169.224,96.394 169.224,96.394 z" fill="#161413"/>
      <path d="M183.313,56.98 C183.313,56.98 183.72,57.306 183.72,57.306 C183.72,57.306 183.639,57.877 183.639,57.877 C183.639,57.877 160.43,69.766 160.43,69.766 C160.43,69.766 159.859,69.44 159.859,69.44 C159.859,69.44 159.859,68.952 159.859,68.952 C159.859,68.952 183.313,56.98 183.313,56.98 z" fill="#161413"/>
      <path d="M184.289,57.144 C184.289,57.144 183.72,57.306 183.72,57.306 C183.72,57.306 183.313,56.98 183.313,56.98 C183.313,56.98 190.235,31.086 190.235,31.086 C190.235,31.086 191.049,31.819 191.049,31.819 C191.049,31.819 184.289,57.144 184.289,57.144 z" fill="#161413"/>
      <path d="M183.639,57.877 C183.639,57.877 183.72,57.306 183.72,57.306 C183.72,57.306 184.289,57.144 184.289,57.144 C184.289,57.144 202.775,75.71 202.775,75.71 C202.775,75.71 202.612,76.281 202.612,76.281 C202.612,76.281 202.042,76.362 202.042,76.362 C202.042,76.362 183.639,57.877 183.639,57.877 z" fill="#161413"/>
      <path d="M182.417,63.578 C182.417,63.578 183.151,62.844 183.151,62.844 C183.151,62.844 197.075,76.85 197.075,76.85 C197.075,76.85 196.424,77.502 196.424,77.502 C196.424,77.502 182.417,63.578 182.417,63.578 z" fill="#161413"/>
    </g>
    <text transform="matrix(1, 0, 0, 1, 136, 258)">
      <tspan x="-121.411" y="2" font-family="Helvetica" font-size="21" fill="#012BAA">Free-base phthalocyanine</tspan>
    </text>
    <text transform="matrix(1, 0, 0, 1, 396, 253)">
      <tspan x="-108" y="7" font-family="Helvetica" font-size="21" fill="#012BAA">Copper phthalocyanine</tspan>
    </text>
  </g>
</svg>
