<?xml version="1.0" encoding="UTF-8"?>
<!DOCTYPE svg PUBLIC "-//W3C//DTD SVG 1.1//EN" "http://www.w3.org/Graphics/SVG/1.1/DTD/svg11.dtd">
<svg version="1.1" xmlns="http://www.w3.org/2000/svg" xmlns:xlink="http://www.w3.org/1999/xlink" x="0" y="0" width="530" height="325" viewBox="0, 0, 530, 325">
  <g id="Layer_1">
    <path d="M68,33.5 L212,33.5 L212,105.5 L68,105.5 L68,33.5 z" fill="#7D7D7D"/>
    <text transform="matrix(1, 0, 0, 1, 140, 69.5)">
      <tspan x="-59.373" y="8" font-family="Helvetica" font-size="24" fill="#FFFFFF">electrode 1</tspan>
    </text>
    <path d="M332,33.5 L476,33.5 L476,105.5 L332,105.5 L332,33.5 z" fill="#7D7D7D"/>
    <text transform="matrix(1, 0, 0, 1, 403.373, 69.5)">
      <tspan x="-59.373" y="8" font-family="Helvetica" font-size="24" fill="#FFFFFF">electrode 2</tspan>
    </text>
    <text transform="matrix(1, 0, 0, 1, 140, 15)">
      <tspan x="-36.018" y="8" font-family="Helvetica" font-size="24" fill="#000000">source</tspan>
    </text>
    <path d="M272,117.5 C245.49,117.5 224,96.01 224,69.5 C224,42.99 245.49,21.5 272,21.5 C298.51,21.5 320,42.99 320,69.5 C320,96.01 298.51,117.5 272,117.5 z" fill="#9F2DCF"/>
    <text transform="matrix(1, 0, 0, 1, 411.018, 15)">
      <tspan x="-36.018" y="8" font-family="Helvetica" font-size="24" fill="#000000">drain</tspan>
    </text>
    <text transform="matrix(1, 0, 0, 1, 272, 69.5)">
      <tspan x="-16.682" y="8" font-family="Helvetica" font-size="24" fill="#FFFFFF">dot</tspan>
    </text>
    <path d="M68.5,70 L32.5,70" fill-opacity="0" stroke="#000000" stroke-width="3"/>
    <path d="M32.5,70 L32.5,226 L32.5,274" fill-opacity="0" stroke="#000000" stroke-width="3"/>
    <path d="M32.5,274 L476.5,274 L512.5,274 L512.5,70" fill-opacity="0" stroke="#000000" stroke-width="3"/>
    <path d="M476.5,70 L512.5,70" fill-opacity="0" stroke="#000000" stroke-width="3"/>
    <path d="M272.5,166 L272.5,118" fill-opacity="0" stroke="#000000" stroke-width="3"/>
    <path d="M248.5,166 L296.5,166" fill-opacity="0" stroke="#000000" stroke-width="3"/>
    <path d="M248.5,178 L296.5,178" fill-opacity="0" stroke="#000000" stroke-width="3"/>
    <path d="M272.5,178 L272.5,274" fill-opacity="0" stroke="#000000" stroke-width="3"/>
    <g>
      <path d="M272.5,250 C259.245,250 248.5,239.255 248.5,226 C248.5,212.745 259.245,202 272.5,202 C285.755,202 296.5,212.745 296.5,226 C296.5,239.255 285.755,250 272.5,250 z" fill="#D11D00"/>
      <path d="M272.5,250 C259.245,250 248.5,239.255 248.5,226 C248.5,212.745 259.245,202 272.5,202 C285.755,202 296.5,212.745 296.5,226 C296.5,239.255 285.755,250 272.5,250 z" fill-opacity="0" stroke="#000000" stroke-width="1"/>
    </g>
    <text transform="matrix(1, 0, 0, 1, 273, 225.5)">
      <tspan x="-20.436" y="7" font-family="Helvetica" font-size="21" fill="#FFFFFF">gate</tspan>
    </text>
    <g>
      <path d="M32.5,202 C19.245,202 8.5,191.255 8.5,178 C8.5,164.745 19.245,154 32.5,154 C45.755,154 56.5,164.745 56.5,178 C56.5,191.255 45.755,202 32.5,202 z" fill="#0137CF"/>
      <path d="M32.5,202 C19.245,202 8.5,191.255 8.5,178 C8.5,164.745 19.245,154 32.5,154 C45.755,154 56.5,164.745 56.5,178 C56.5,191.255 45.755,202 32.5,202 z" fill-opacity="0" stroke="#000000" stroke-width="1"/>
    </g>
    <text transform="matrix(1, 0, 0, 1, 34, 177.5)">
      <tspan x="-20.436" y="7" font-family="Helvetica" font-size="21" fill="#FFFFFF">bias</tspan>
    </text>
    <path d="M32.5,274 L32.5,286" fill-opacity="0" stroke="#000000" stroke-width="3"/>
    <path d="M15.5,286 L51.5,286" fill-opacity="0" stroke="#000000" stroke-width="3"/>
    <path d="M21.5,294 L45.5,294" fill-opacity="0" stroke="#000000" stroke-width="3"/>
    <path d="M27.5,302 L39.5,302" fill-opacity="0" stroke="#000000" stroke-width="3"/>
  </g>
</svg>
